<svg width="142" height="34" viewBox="0 0 142 34" fill="none" xmlns="http://www.w3.org/2000/svg">
<path d="M137.752 34.0013C136.569 34.0013 135.558 33.5805 134.718 32.7388C133.877 31.8971 133.457 30.8839 133.457 29.6993C133.457 28.5458 133.877 27.5482 134.718 26.7065C135.558 25.8648 136.569 25.444 137.752 25.444C138.904 25.444 139.9 25.8648 140.74 26.7065C141.58 27.5482 142 28.5458 142 29.6993C142 30.8839 141.58 31.8971 140.74 32.7388C139.9 33.5805 138.904 34.0013 137.752 34.0013Z" fill="black"/>
<path d="M122.179 33.2965L121.852 28.9476V0.563416H129.135V33.2965H122.179ZM115.223 33.8576C113.044 33.8576 111.161 33.3744 109.574 32.408C108.018 31.4104 106.804 29.992 105.932 28.1527C105.092 26.3134 104.672 24.1312 104.672 21.6061C104.672 19.0498 105.092 16.8676 105.932 15.0595C106.804 13.2202 108.018 11.8173 109.574 10.8509C111.161 9.85337 113.044 9.35458 115.223 9.35458C117.152 9.35458 118.771 9.85337 120.078 10.8509C121.416 11.8173 122.412 13.2202 123.066 15.0595C123.719 16.8676 124.046 19.0498 124.046 21.6061C124.046 24.1312 123.719 26.3134 123.066 28.1527C122.412 29.992 121.416 31.4104 120.078 32.408C118.771 33.3744 117.152 33.8576 115.223 33.8576ZM117.137 27.1239C118.039 27.1239 118.849 26.8901 119.564 26.4225C120.28 25.9549 120.84 25.3158 121.245 24.5053C121.65 23.6636 121.852 22.6972 121.852 21.6061C121.852 20.515 121.65 19.5642 121.245 18.7536C120.84 17.9119 120.28 17.2573 119.564 16.7897C118.849 16.322 118.024 16.0882 117.09 16.0882C116.156 16.0882 115.332 16.322 114.616 16.7897C113.9 17.2573 113.324 17.9119 112.888 18.7536C112.484 19.5642 112.266 20.515 112.235 21.6061C112.266 22.6972 112.484 23.6636 112.888 24.5053C113.324 25.3158 113.9 25.9549 114.616 26.4225C115.363 26.8901 116.203 27.1239 117.137 27.1239Z" fill="black"/>
<path d="M79.1211 33.2931V9.9124H85.9838L86.4039 14.2145V33.2931H79.1211ZM94.1536 33.2931V21.3222H101.437V33.2931H94.1536ZM94.1536 21.3222C94.1536 20.0752 94.0136 19.0932 93.7335 18.3762C93.4534 17.628 93.0488 17.0825 92.5197 16.7396C92.0217 16.3967 91.3992 16.2096 90.6523 16.1784C89.2517 16.1473 88.1935 16.5369 87.4777 17.3475C86.7619 18.1268 86.4039 19.327 86.4039 20.9481H84.2098C84.2098 18.4853 84.5832 16.3967 85.3302 14.6821C86.0772 12.9363 87.0887 11.6114 88.3647 10.7073C89.6719 9.80329 91.1814 9.35126 92.8932 9.35126C94.7606 9.35126 96.3323 9.74094 97.6083 10.5203C98.8844 11.2685 99.8337 12.4219 100.456 13.9806C101.11 15.5394 101.437 17.5345 101.437 19.9661V21.3222H94.1536Z" fill="black"/>
<path d="M67.7785 33.2931L67.545 28.2429V21.6495C67.545 20.4026 67.4361 19.3115 67.2182 18.3762C67.0315 17.441 66.6425 16.724 66.0511 16.2252C65.4909 15.6952 64.6661 15.4303 63.5768 15.4303C62.7054 15.4303 61.9428 15.6329 61.2893 16.0382C60.6357 16.4434 60.0754 16.989 59.6086 17.6748L53.2128 15.5705C53.773 14.4171 54.5044 13.3727 55.4069 12.4375C56.3406 11.5023 57.4766 10.7541 58.815 10.193C60.1533 9.63183 61.7094 9.35126 63.4834 9.35126C65.9111 9.35126 67.9652 9.80329 69.6459 10.7073C71.3265 11.6114 72.587 12.874 73.4273 14.495C74.2677 16.1161 74.6878 18.0333 74.6878 20.2467L74.5945 33.2931H67.7785ZM61.3826 33.8543C58.6438 33.8543 56.5118 33.2464 54.9868 32.0306C53.4617 30.7836 52.6992 29.0067 52.6992 26.6998C52.6992 24.237 53.4929 22.3977 55.0802 21.1819C56.6674 19.9661 58.8928 19.3582 61.7561 19.3582H68.1519V24.0811H64.4638C62.9388 24.0811 61.8339 24.2993 61.1492 24.7358C60.4645 25.1411 60.1221 25.7334 60.1221 26.5127C60.1221 27.0739 60.3711 27.5259 60.8691 27.8688C61.3982 28.1806 62.114 28.3364 63.0166 28.3364C63.9192 28.3364 64.6973 28.1494 65.3508 27.7753C66.0356 27.37 66.5647 26.8401 66.9381 26.1854C67.3427 25.5307 67.545 24.8293 67.545 24.0811H69.4124C69.4124 27.1674 68.7433 29.5678 67.405 31.2824C66.0978 32.997 64.0903 33.8543 61.3826 33.8543Z" fill="black"/>
<path d="M40.6774 21.1877C40.6774 18.6626 41.1753 16.5583 42.1713 14.8749C43.1984 13.1915 44.4744 11.9289 45.9995 11.0872C47.5556 10.2455 49.174 9.82468 50.8547 9.82468V16.9324C49.423 16.9324 48.0692 17.0883 46.7931 17.4C45.5482 17.7118 44.5367 18.195 43.7586 18.8496C42.9805 19.4731 42.5914 20.2837 42.5914 21.2812L40.6774 21.1877ZM35.3086 33.299V9.9182H42.5914V33.299H35.3086Z" fill="black"/>
<path d="M17.1334 33.8553C13.7721 33.8553 10.7998 33.1383 8.21655 31.7043C5.66444 30.2391 3.65699 28.2439 2.19419 25.7188C0.731398 23.1625 0 20.2321 0 16.9277C0 13.6232 0.731398 10.7084 2.19419 8.18326C3.65699 5.62697 5.66444 3.63181 8.21655 2.19779C10.7998 0.732597 13.7721 0 17.1334 0C19.2186 0 21.1016 0.311743 22.7823 0.935229C24.494 1.52754 25.988 2.35366 27.264 3.41359C28.5401 4.47352 29.5983 5.68931 30.4386 7.06098L24.2295 10.8019C23.7626 10.0537 23.1402 9.38347 22.3621 8.79116C21.6151 8.19885 20.7904 7.74682 19.8878 7.43508C18.9852 7.09216 18.0671 6.9207 17.1334 6.9207C15.2971 6.9207 13.6631 7.34156 12.2315 8.18326C10.8309 9.02497 9.72604 10.2096 8.91683 11.7371C8.10762 13.2335 7.70302 14.9637 7.70302 16.9277C7.70302 18.8916 8.09206 20.6374 8.87014 22.1649C9.64823 23.6613 10.7687 24.8459 12.2315 25.7188C13.6943 26.5917 15.3905 27.0281 17.3201 27.0281C18.7829 27.0281 20.0745 26.7476 21.195 26.1864C22.3154 25.6253 23.2024 24.8459 23.856 23.8484C24.5096 22.8508 24.8364 21.6817 24.8364 20.3413L31.9792 19.1255C31.9792 22.3052 31.3412 25.0018 30.0651 27.2152C28.7891 29.3974 27.0462 31.0496 24.8364 32.1719C22.6266 33.2942 20.059 33.8553 17.1334 33.8553ZM17.3668 21.1362V15.3378H31.9792V19.7801L27.7776 21.1362H17.3668Z" fill="black"/>
</svg>
